<svg xmlns="http://www.w3.org/2000/svg" width="50" height="50" viewBox="0 0 50 50">
  <g id="icon" transform="translate(-1035 -132)">
    <rect id="grid" width="50" height="50" transform="translate(1035 132)" fill="red" opacity="0"/>
    <g id="icon-2" data-name="icon" transform="translate(1288 126)">
      <g id="그룹_392" data-name="그룹 392">
        <path id="패스_1128" data-name="패스 1128" d="M-246,14.753V47h28V8h-20.535Z" fill="none" stroke="#000" stroke-miterlimit="10" stroke-width="2"/>
        <path id="패스_1129" data-name="패스 1129" d="M-237,9v7h-8" fill="none" stroke="#000" stroke-miterlimit="10" stroke-width="2"/>
      </g>
      <rect id="사각형_1668" data-name="사각형 1668" width="2" height="2" transform="translate(-214 14)"/>
      <rect id="사각형_1669" data-name="사각형 1669" width="2" height="2" transform="translate(-210 14)"/>
      <rect id="사각형_1670" data-name="사각형 1670" width="2" height="2" transform="translate(-214 18)"/>
      <rect id="사각형_1671" data-name="사각형 1671" width="2" height="2" transform="translate(-210 18)"/>
      <rect id="사각형_1672" data-name="사각형 1672" width="2" height="2" transform="translate(-214 22)"/>
      <rect id="사각형_1673" data-name="사각형 1673" width="2" height="2" transform="translate(-210 22)"/>
      <rect id="사각형_1674" data-name="사각형 1674" width="2" height="2" transform="translate(-214 26)"/>
      <rect id="사각형_1675" data-name="사각형 1675" width="2" height="2" transform="translate(-210 26)"/>
      <rect id="사각형_1676" data-name="사각형 1676" width="2" height="2" transform="translate(-214 30)"/>
      <rect id="사각형_1677" data-name="사각형 1677" width="2" height="2" transform="translate(-210 30)"/>
      <rect id="사각형_1678" data-name="사각형 1678" width="2" height="2" transform="translate(-214 34)"/>
      <rect id="사각형_1679" data-name="사각형 1679" width="2" height="2" transform="translate(-210 34)"/>
      <rect id="사각형_1680" data-name="사각형 1680" width="2" height="2" transform="translate(-214 38)"/>
      <rect id="사각형_1681" data-name="사각형 1681" width="2" height="2" transform="translate(-210 38)"/>
      <rect id="사각형_1682" data-name="사각형 1682" width="2" height="2" transform="translate(-214 42)"/>
      <rect id="사각형_1683" data-name="사각형 1683" width="2" height="2" transform="translate(-210 42)"/>
      <rect id="사각형_1684" data-name="사각형 1684" width="2" height="2" transform="translate(-214 46)"/>
      <rect id="사각형_1685" data-name="사각형 1685" width="2" height="2" transform="translate(-210 46)"/>
      <rect id="사각형_1686" data-name="사각형 1686" width="2" height="2" transform="translate(-214 50)"/>
      <rect id="사각형_1687" data-name="사각형 1687" width="2" height="2" transform="translate(-210 50)"/>
      <rect id="사각형_1688" data-name="사각형 1688" width="2" height="2" transform="translate(-214 54)"/>
      <rect id="사각형_1689" data-name="사각형 1689" width="2" height="2" transform="translate(-210 54)"/>
      <rect id="사각형_1690" data-name="사각형 1690" width="2" height="2" transform="translate(-222 50)"/>
      <rect id="사각형_1691" data-name="사각형 1691" width="2" height="2" transform="translate(-218 50)"/>
      <rect id="사각형_1692" data-name="사각형 1692" width="2" height="2" transform="translate(-222 54)"/>
      <rect id="사각형_1693" data-name="사각형 1693" width="2" height="2" transform="translate(-218 54)"/>
      <rect id="사각형_1694" data-name="사각형 1694" width="2" height="2" transform="translate(-230 50)"/>
      <rect id="사각형_1695" data-name="사각형 1695" width="2" height="2" transform="translate(-226 50)"/>
      <rect id="사각형_1696" data-name="사각형 1696" width="2" height="2" transform="translate(-230 54)"/>
      <rect id="사각형_1697" data-name="사각형 1697" width="2" height="2" transform="translate(-226 54)"/>
      <rect id="사각형_1698" data-name="사각형 1698" width="2" height="2" transform="translate(-238 50)"/>
      <rect id="사각형_1699" data-name="사각형 1699" width="2" height="2" transform="translate(-234 50)"/>
      <rect id="사각형_1700" data-name="사각형 1700" width="2" height="2" transform="translate(-238 54)"/>
      <rect id="사각형_1701" data-name="사각형 1701" width="2" height="2" transform="translate(-234 54)"/>
      <rect id="사각형_1702" data-name="사각형 1702" width="2" height="2" transform="translate(-242 50)"/>
      <rect id="사각형_1703" data-name="사각형 1703" width="2" height="2" transform="translate(-242 54)"/>
    </g>
  </g>
</svg>
