<svg xmlns="http://www.w3.org/2000/svg" width="50.137" height="50" viewBox="0 0 50.137 50">
  <g id="icon" transform="translate(-634.863 -132)">
    <rect id="grid" width="50" height="50" transform="translate(635 132)" fill="red" opacity="0"/>
    <g id="icon-2" data-name="icon" transform="translate(1013.391 125)">
      <g id="그룹_387" data-name="그룹 387">
        <g id="그룹_384" data-name="그룹 384">
          <rect id="사각형_1656" data-name="사각형 1656" width="2" height="2" transform="translate(-365 25)"/>
          <rect id="사각형_1657" data-name="사각형 1657" width="2" height="2" transform="translate(-354 25)"/>
          <rect id="사각형_1658" data-name="사각형 1658" width="2" height="2" transform="translate(-343 25)"/>
        </g>
        <g id="그룹_385" data-name="그룹 385">
          <rect id="사각형_1659" data-name="사각형 1659" width="2" height="2" transform="translate(-365 33)"/>
          <rect id="사각형_1660" data-name="사각형 1660" width="2" height="2" transform="translate(-354 33)"/>
          <rect id="사각형_1661" data-name="사각형 1661" width="2" height="2" transform="translate(-343 33)"/>
        </g>
        <g id="그룹_386" data-name="그룹 386">
          <rect id="사각형_1662" data-name="사각형 1662" width="2" height="2" transform="translate(-365 40)"/>
          <rect id="사각형_1663" data-name="사각형 1663" width="2" height="2" transform="translate(-354 40)"/>
          <rect id="사각형_1664" data-name="사각형 1664" width="2" height="2" transform="translate(-343 40)"/>
        </g>
      </g>
      <g id="그룹_389" data-name="그룹 389">
        <rect id="사각형_1665" data-name="사각형 1665" width="45" height="37" transform="translate(-335 10) rotate(90)" fill="none" stroke="#000" stroke-miterlimit="10" stroke-width="2"/>
        <line id="선_71" data-name="선 71" x1="36" transform="translate(-371 17)" fill="none" stroke="#000" stroke-miterlimit="10" stroke-width="2"/>
        <line id="선_72" data-name="선 72" x1="36" transform="translate(-371 49)" fill="none" stroke="#000" stroke-miterlimit="10" stroke-width="2"/>
        <g id="그룹_388" data-name="그룹 388">
          <line id="선_73" data-name="선 73" y2="6" transform="translate(-340 7)" fill="none" stroke="#000" stroke-miterlimit="10" stroke-width="2"/>
          <line id="선_74" data-name="선 74" y2="6" transform="translate(-347 7)" fill="none" stroke="#000" stroke-miterlimit="10" stroke-width="2"/>
          <line id="선_75" data-name="선 75" y2="6" transform="translate(-353 7)" fill="none" stroke="#000" stroke-miterlimit="10" stroke-width="2"/>
          <line id="선_76" data-name="선 76" y2="6" transform="translate(-360 7)" fill="none" stroke="#000" stroke-miterlimit="10" stroke-width="2"/>
          <line id="선_77" data-name="선 77" y2="6" transform="translate(-366 7)" fill="none" stroke="#000" stroke-miterlimit="10" stroke-width="2"/>
        </g>
        <path id="패스_1124" data-name="패스 1124" d="M-372,11l-5.391,42H-372" fill="none" stroke="#000" stroke-miterlimit="10" stroke-width="2"/>
        <path id="패스_1125" data-name="패스 1125" d="M-335,11l5.417,42H-334" fill="none" stroke="#000" stroke-miterlimit="10" stroke-width="2"/>
      </g>
    </g>
  </g>
</svg>
