<svg xmlns="http://www.w3.org/2000/svg" width="80" height="80" viewBox="0 0 80 80">
  <g id="icon" transform="translate(-786 -334)">
    <rect id="grid" width="80" height="80" transform="translate(786 334)" fill="#ff0d0d" opacity="0"/>
    <g id="icon-2" data-name="icon" transform="translate(-4 -5)">
      <g id="그룹_388" data-name="그룹 388" transform="translate(785 183)">
        <g id="패스_1117" data-name="패스 1117" fill="none" stroke-miterlimit="10">
          <path d="M56.769,158H16v76H75V172.881Z" stroke="none"/>
          <path d="M 19 161 L 19 231 L 72 231 L 72 174.3052215576172 L 55.70005798339844 161 L 19 161 M 16 158 L 56.76901626586914 158 L 75 172.8814849853516 L 75 234 L 16 234 L 16 158 Z" stroke="none" fill="#000"/>
        </g>
        <path id="패스_1118" data-name="패스 1118" d="M54.5,160l.034,17.142,18.608-2.068" fill="none" stroke="#000" stroke-miterlimit="10" stroke-width="3"/>
      </g>
      <path id="패스_1119" data-name="패스 1119" d="M-250.729-229.415a11.6,11.6,0,0,1-6.053,1.429,4.273,4.273,0,0,1-4.049-4.532,20.386,20.386,0,0,1,3.061-10.639,53.974,53.974,0,0,1,6.6-8.1,2.6,2.6,0,0,0,.4-.529,17.143,17.143,0,0,0-5.554,3.772l-.137-.084c.444-.826.825-1.695,1.342-2.472a14.037,14.037,0,0,1,11-6.517,3.224,3.224,0,0,0,1.114-.321,22.217,22.217,0,0,1,8.668-2.276c3.47-.186,5.7,2.023,5.1,5.911-.141.916-.441,1.807-.691,2.8a1.711,1.711,0,0,1-.6-1.9,5.718,5.718,0,0,0,.24-1.775,2.269,2.269,0,0,0-2.271-2.523,5.932,5.932,0,0,0-4.281,1.468c5.742,3.314,8.344,8.2,7.8,14.827h-20.382A6.212,6.212,0,0,0-245.8-235.5a6.611,6.611,0,0,0,8.429-2.443.842.842,0,0,1,.542-.388c2.347-.026,4.694-.017,7.148-.017-1.761,4.608-4.838,7.837-9.552,9.054-7.331,1.891-12.834-.886-16.723-7.207a6.059,6.059,0,0,0-2.256,5.652,2.235,2.235,0,0,0,2.033,1.738,9.805,9.805,0,0,0,3.9-.672C-251.46-230.022-251.464-230.04-250.729-229.415Zm1.675-15.952H-237.3c.206-2.693-2.578-5.385-5.668-5.507A5.852,5.852,0,0,0-249.054-245.367Z" transform="translate(1073.831 627.703)"/>
    </g>
  </g>
</svg>
