<?xml version="1.0" encoding="utf-8"?>
<!-- Generator: Adobe Illustrator 23.1.1, SVG Export Plug-In . SVG Version: 6.00 Build 0)  -->
<svg version="1.1" id="Layer_1" xmlns="http://www.w3.org/2000/svg" xmlns:xlink="http://www.w3.org/1999/xlink" x="0px" y="0px"
	 viewBox="0 0 24 24" style="enable-background:new 0 0 24 24;" xml:space="preserve">
<style type="text/css">
	.st0{display:none;}
	.st1{display:inline;}
	.st2{fill:none;}
	.st3{fill:none;stroke:#000000;stroke-width:3;}
	.st4{fill:#FFFFFF;}
</style>
<g id="btn_search" transform="translate(-40 -481)" class="st0">
	<g id="타원_1" transform="translate(40 481)" class="st1">
		<circle class="st2" cx="10" cy="10" r="10"/>
		<circle class="st3" cx="10" cy="10" r="8.5"/>
	</g>
	
		<rect id="사각형_1486" x="57.9" y="495.4" transform="matrix(0.7071 -0.7071 0.7071 0.7071 -336.4463 188.5832)" class="st1" width="3" height="10"/>
</g>
<g>
	<path class="st4" d="M10,3c3.9,0,7,3.1,7,7s-3.1,7-7,7s-7-3.1-7-7S6.1,3,10,3 M10,0C4.5,0,0,4.5,0,10s4.5,10,10,10s10-4.5,10-10
		S15.5,0,10,0L10,0z"/>
</g>
<g>
	<rect x="18.1" y="15" transform="matrix(0.7071 -0.7071 0.7071 0.7071 -8.1376 19.6444)" class="st4" width="3" height="9.3"/>
</g>
</svg>
