<svg xmlns="http://www.w3.org/2000/svg" width="274.534" height="21" viewBox="0 0 274.534 21">
  <g id="logo" transform="translate(0.653 3.5)">
    <path id="LOGO-2" data-name="LOGO" d="M7576.917,1420.682a11.257,11.257,0,0,1-4.251-2.438l1.513-2.293a15.1,15.1,0,0,0,4.056,2.081,14.008,14.008,0,0,0,4.333.659,9.009,9.009,0,0,0,4.515-.91,2.765,2.765,0,0,0,1.535-2.463,2.236,2.236,0,0,0-.516-1.581,3.244,3.244,0,0,0-1.5-.844,12.272,12.272,0,0,0-2.419-.409q-1.433-.117-3.267-.25a31.128,31.128,0,0,1-3.356-.436,7.7,7.7,0,0,1-2.395-.829,3.653,3.653,0,0,1-1.445-1.45,4.756,4.756,0,0,1-.48-2.265,4.953,4.953,0,0,1,2.155-4.243,10.514,10.514,0,0,1,6.209-1.554,14.194,14.194,0,0,1,8.984,2.818l-1.674,2.135a15.641,15.641,0,0,0-3.7-1.633,13.833,13.833,0,0,0-3.817-.528,8.655,8.655,0,0,0-3.917.7,2.1,2.1,0,0,0-1.332,1.884,1.947,1.947,0,0,0,1.445,1.844,6.073,6.073,0,0,0,1.525.409q.834.117,1.832.184t2.144.145q1.144.079,2.406.264a8.925,8.925,0,0,1,4.606,1.739,4.62,4.62,0,0,1,1.491,3.688,5.443,5.443,0,0,1-2.3,4.691q-2.3,1.66-6.749,1.66A18.581,18.581,0,0,1,7576.917,1420.682Zm265.563.329-4.492-7.272H7829.6v7.272h-2.75v-19.078h13.086a5.3,5.3,0,0,1,4.112,1.607,6.248,6.248,0,0,1,1.479,4.4,7.148,7.148,0,0,1-.32,2.238,5,5,0,0,1-.906,1.673,4.59,4.59,0,0,1-1.375,1.121,6.2,6.2,0,0,1-1.707.606l4.446,7.431Zm-12.879-10.12h9.924a3.359,3.359,0,0,0,2.37-.757,2.849,2.849,0,0,0,.814-2.193q0-3.161-3.436-3.163H7829.6Zm-25.218,10.12v-19.078h16.729v2.846h-13.979v4.928h9.716v2.846h-9.716v5.612h14.621v2.846Zm-23.369,0v-19.078h13.153a6.036,6.036,0,0,1,2.293.421,4.777,4.777,0,0,1,1.741,1.2,5.429,5.429,0,0,1,1.1,1.885,7.364,7.364,0,0,1,.39,2.451,5.809,5.809,0,0,1-1.536,4.347,6.2,6.2,0,0,1-4.514,1.5h-9.878v7.272Zm2.75-10.12h9.923a3.357,3.357,0,0,0,2.384-.757,2.877,2.877,0,0,0,.8-2.193q0-3.161-3.368-3.163h-9.74Zm-10.352,10.12-1.925-4.269h-11.162l-1.924,4.269h-3l8.777-19.078h3.459l8.777,19.078Zm-11.733-7.115h8.457l-4.218-9.223Zm-25.942,7.115v-19.078h13.156a6.023,6.023,0,0,1,2.291.421,4.783,4.783,0,0,1,1.742,1.2,5.437,5.437,0,0,1,1.1,1.885,7.364,7.364,0,0,1,.389,2.451,5.816,5.816,0,0,1-1.534,4.347,6.2,6.2,0,0,1-4.515,1.5h-9.877v7.272Zm2.752-10.12h9.922a3.356,3.356,0,0,0,2.384-.757,2.875,2.875,0,0,0,.8-2.193q0-3.161-3.368-3.163h-9.739Zm-18.449,10.12-1.926-4.269h-11.16l-1.925,4.269h-3l8.777-19.078h3.46l8.778,19.078Zm-11.732-7.115h8.455l-4.216-9.223Zm-13.641,7.115v-8.458h-13.293v8.458h-2.749v-19.052h2.749v7.748h13.293v-7.748h2.75v19.052Zm-29.667,0-4.148-15.942-4.148,15.942H7653.2l-5.477-19.078h3.07l4.17,15.97,4.148-15.97h3.483l4.148,15.97,4.171-15.97h3.071l-5.432,19.078Zm-24.673,0v-15.6h-.069l-8.617,12.438-8.547-12.438h-.07v15.6h-2.75v-19.078h3.416l7.975,11.542,8-11.542h3.415v19.078Zm-27.654,0-1.925-4.269h-11.161l-1.925,4.269h-3l8.777-19.078h3.46l8.778,19.078Zm-11.733-7.115h8.455l-4.216-9.223Z" transform="translate(-7572.667 -1404.459)" fill="#1a1311" stroke="rgba(0,0,0,0)" stroke-miterlimit="10" stroke-width="1"/>
  </g>
</svg>
